<svg xmlns="http://www.w3.org/2000/svg" width="1920" height="1080" viewBox="0 0 1920 1080" fill="none">
  <rect width="1920" height="1080" fill="#0A0E12"/>
  <path d="M0 720C320 640 640 780 960 700C1280 620 1600 680 1920 600V1080H0V720Z" fill="#111820"/>
  <path d="M0 520C400 480 700 560 960 500C1300 420 1600 460 1920 400" stroke="#2A4858" stroke-width="2"/>
  <path d="M0 560C420 520 720 600 980 540C1320 460 1620 500 1920 440" stroke="#1C2C36" stroke-width="1.5"/>
  <path d="M180 0V1080" stroke="#1C2C36" stroke-width="1" stroke-dasharray="4 10"/>
  <path d="M620 0V1080" stroke="#1C2C36" stroke-width="1" stroke-dasharray="4 10"/>
  <path d="M1100 0V1080" stroke="#1C2C36" stroke-width="1" stroke-dasharray="4 10"/>
  <path d="M1580 0V1080" stroke="#1C2C36" stroke-width="1" stroke-dasharray="4 10"/>
  <circle cx="1420" cy="360" r="18" stroke="#FF6B35" stroke-width="2" fill="none"/>
  <circle cx="1420" cy="360" r="4" fill="#FF6B35"/>
  <text x="1450" y="366" fill="#8B9099" font-family="monospace" font-size="18">JEWAR NODE</text>
  <text x="80" y="100" fill="#E8E4DC" font-family="sans-serif" font-size="28" letter-spacing="6">AERIAL CORRIDOR SLOT</text>
  <text x="80" y="140" fill="#8B9099" font-family="monospace" font-size="16">Replace with /public/heroes/corridor.jpg</text>
</svg>
